<svg version="1.2" preserveAspectRatio="xMidYMid meet" viewBox="161.97975253093364 51.3000535566662 1075.5455568053994 727.3799937140001" zoomAndPan="magnify" xmlns:xlink="http://www.w3.org/1999/xlink" xmlns="http://www.w3.org/2000/svg" style="max-height: 500px" width="1075.5455568053994" height="727.3799937140001"><defs><clipPath id="c9ae78c236"><path d="M 219.25 515 L 315 515 L 315 694 L 219.25 694 Z M 219.25 515"/></clipPath><clipPath id="c1b332893f"><path d="M 239 570 L 269 570 L 269 740.21875 L 239 740.21875 Z M 239 570"/></clipPath><clipPath id="def57e77c1"><path d="M 238 568 L 271 568 L 271 740.21875 L 238 740.21875 Z M 238 568"/></clipPath><clipPath id="3bb6c4ca66"><path d="M 251 542 L 1150 542 L 1150 740.21875 L 251 740.21875 Z M 251 542"/></clipPath><clipPath id="2e3e577795"><path d="M 250 541 L 1152 541 L 1152 740.21875 L 250 740.21875 Z M 250 541"/></clipPath><clipPath id="a28d1ca5d8"><path d="M 265 516 L 1177.75 516 L 1177.75 692 L 265 692 Z M 265 516"/></clipPath><clipPath id="12447e32a2"><path d="M 264 514 L 1177.75 514 L 1177.75 694 L 264 694 Z M 264 514"/></clipPath><clipPath id="87dab7c369"><path d="M 590 98.96875 L 896 98.96875 L 896 518 L 590 518 Z M 590 98.96875"/></clipPath><clipPath id="58ad6b8f93"><path d="M 1279.425781 81 L 1314.675781 81 L 1314.675781 117 L 1279.425781 117 Z M 1279.425781 81"/></clipPath></defs><g id="f8d06573cd"><path d="M 266.734375 516.546875 L 275.636719 517.894531 L 284.914062 523.261719 L 293.101562 531.453125 L 299.8125 541.472656 L 305.199219 554.289062 L 309.574219 569.675781 L 310.691406 577.023438 L 312.648438 585.675781 L 313.132812 594.707031 L 313.488281 604.242188 L 313.132812 612.175781 L 312.648438 621.480469 L 310.691406 629.519531 L 309.574219 637.582031 L 307.261719 644.929688 L 305.199219 652 L 299.8125 665.304688 L 293.101562 675.683594 L 284.914062 684.101562 L 275.636719 689.007812 L 266.734375 691.804688 L 257.960938 689.007812 L 249.039062 684.101562 L 241.339844 675.683594 L 233.890625 665.304688 L 228.042969 652 L 226.945312 644.929688 L 224.253906 637.582031 L 222.90625 629.519531 L 221.328125 621.480469 L 220.699219 612.175781 L 220.109375 604.242188 L 220.699219 594.707031 L 221.328125 585.675781 L 222.90625 577.023438 L 224.253906 569.675781 L 226.945312 561.617188 L 231.324219 547.574219 L 237.929688 535.976562 L 245.632812 527.179688 L 253.058594 519.832031 L 262.71875 516.546875 L 266.734375 516.546875" style="stroke:none;fill-rule:nonzero;fill:#ac9e9a;fill-opacity:1;"/><g clip-path="url(#c9ae78c236)" clip-rule="nonzero"><path transform="matrix(0.538649,0,0,-0.538866,208.599502,753.691566)" d="M 107.927154 440.0814 L 124.454318 437.580486 L 141.677669 427.620325 L 156.877729 412.419118 L 169.336557 393.825367 L 179.336979 370.041313 L 187.459148 341.487401 L 189.533202 327.851984 L 193.166423 311.795392 L 194.065663 295.035644 L 194.725589 277.340772 L 194.065663 262.618001 L 193.166423 245.350822 L 189.533202 230.432327 L 187.459148 215.470338 L 183.166001 201.83492 L 179.336979 188.714184 L 169.336557 164.024002 L 156.877729 144.763341 L 141.677669 129.14169 L 124.454318 120.036914 L 107.927154 114.846611 L 91.639303 120.036914 L 75.075878 129.14169 L 60.78231 144.763341 L 46.952866 164.024002 L 36.096716 188.714184 L 34.058922 201.83492 L 29.062337 215.470338 L 26.560419 230.432327 L 23.630636 245.350822 L 22.463074 262.618001 L 21.368032 277.340772 L 22.463074 295.035644 L 23.630636 311.795392 L 26.560419 327.851984 L 29.062337 341.487401 L 34.058922 356.442141 L 42.188343 382.502389 L 54.451369 404.024746 L 68.752189 420.349552 L 82.538122 433.984969 L 100.472162 440.0814 Z M 107.927154 440.0814" style="fill:none;stroke-width:0.45;stroke-linecap:butt;stroke-linejoin:miter;stroke:#363639;stroke-opacity:1;stroke-miterlimit:4;"/></g><path d="M 267.472656 517.894531 L 260.761719 517.894531 L 251.984375 522.675781 L 244.136719 530.230469 L 237.929688 537.914062 L 234.375 545.617188 L 301.390625 545.617188 L 297.015625 539.765625 L 290.910156 531.453125 L 283.714844 523.640625 L 275.046875 518.484375 L 267.472656 517.894531" style="stroke:none;fill-rule:nonzero;fill:#363639;fill-opacity:1;"/><path transform="matrix(0.538649,0,0,-0.538866,208.599502,753.691566)" d="M 109.29777 437.580486 L 96.838942 437.580486 L 80.543839 428.707679 L 65.974697 414.688063 L 54.451369 400.429229 L 47.852106 386.13415 L 172.26634 386.13415 L 164.14417 396.993191 L 152.809393 412.419118 L 139.451324 426.917169 L 123.359276 436.485883 Z M 109.29777 437.580486" style="fill:none;stroke-width:0.45;stroke-linecap:butt;stroke-linejoin:miter;stroke:#ac9e9a;stroke-opacity:1;stroke-miterlimit:4;"/><path d="M 472.707031 537.429688 L 500.648438 474.40625 L 515.039062 418.964844 L 519.5625 376.824219 L 517.398438 336.15625 L 515.796875 322.976562 L 508.726562 309.296875 L 504.792969 301.488281 L 498.945312 277.910156 L 496.988281 261.890625 L 497.703125 237.222656 L 500.648438 220.507812 L 504.792969 204.765625 L 511.378906 189.105469 L 519.5625 174.9375 L 529.707031 161.738281 L 540.792969 149.785156 L 547.042969 144.289062 L 561.078125 135.257812 L 585.148438 125.617188 L 594.40625 123.535156 L 612.964844 120.714844 L 636.425781 121.808594 L 646.421875 123.535156 L 666.074219 129.511719 L 674.257812 133.554688 L 689.15625 143.574219 L 702.347656 155.277344 L 713.332031 169.339844 L 718.085938 177.019531 L 725.261719 192.535156 L 730.414062 209.523438 L 734.5625 235.539062 L 734.308594 261.890625 L 730.035156 286.308594 L 724.1875 301.488281 L 717.347656 314.789062 L 709.289062 325.777344 L 706.007812 344.597656 L 705.144531 369.644531 L 711.246094 408.460938 L 716.738281 428.371094 L 744.324219 489.542969 L 774.960938 537.429688 L 472.707031 537.429688" style="stroke:none;fill-rule:nonzero;fill:#ac9e9a;fill-opacity:1;"/><path transform="matrix(0.538649,0,0,-0.538866,208.599502,753.691566)" d="M 490.314547 401.328108 L 542.187653 518.28389 L 568.90379 621.169312 L 577.301533 699.371802 L 573.28396 774.841408 L 570.310666 799.299621 L 557.184659 824.685709 L 549.881959 839.176512 L 539.025809 882.931631 L 535.392588 912.652637 L 536.719693 958.437483 L 542.187653 989.456064 L 549.881959 1018.669638 L 562.108725 1047.730982 L 577.301533 1074.023199 L 596.134814 1098.517657 L 616.715811 1120.699675 L 628.318911 1130.899055 L 654.375121 1147.658802 L 699.061558 1165.549398 L 716.248649 1169.413128 L 750.702602 1174.646925 L 794.257736 1172.617198 L 812.815444 1169.413128 L 849.299939 1158.322119 L 864.492748 1150.819377 L 892.151636 1132.225626 L 916.641428 1110.507545 L 937.033875 1084.411053 L 945.859482 1070.159468 L 959.181291 1041.366338 L 968.746596 1009.840325 L 976.448153 961.561813 L 975.976777 912.652637 L 968.05041 867.346226 L 957.187008 839.176512 L 944.488866 814.493579 L 929.52812 794.10207 L 923.436493 759.176264 L 921.833815 712.695511 L 933.16134 640.661942 L 943.357564 603.713658 L 994.570744 490.193915 L 1051.447687 401.328108 Z M 490.314547 401.328108" style="fill:none;stroke-width:0.45;stroke-linecap:butt;stroke-linejoin:miter;stroke:#363639;stroke-opacity:1;stroke-miterlimit:4;"/><path d="M 616.625 161.992188 L 625.296875 161.992188 L 633.480469 163.570312 L 656.792969 171.421875 L 677.433594 187.039062 L 682.695312 193.019531 L 691.46875 206.699219 L 695.613281 214.40625 L 702.347656 238.570312 L 702.832031 248.589844 L 702.347656 256.546875 L 695.613281 282.308594 L 682.695312 303.066406 L 677.433594 310.011719 L 664.601562 320.410156 L 649.722656 328.828125 L 633.480469 333.230469 L 616.625 335.542969 L 599.773438 333.230469 L 584.769531 328.828125 L 563.769531 315.652344 L 556.933594 310.011719 L 547.042969 296.707031 L 538.375 282.308594 L 532.378906 256.546875 L 531.304688 248.589844 L 532.378906 238.570312 L 538.375 214.40625 L 542.878906 206.699219 L 551.671875 193.019531 L 556.933594 187.039062 L 570.355469 176.054688 L 577.679688 171.421875 L 599.773438 163.570312 L 616.625 161.992188" style="stroke:none;fill-rule:nonzero;fill:#ac9e9a;fill-opacity:1;"/><path transform="matrix(0.538649,0,0,-0.538866,208.599502,753.691566)" d="M 757.497667 1098.04647 L 773.596967 1098.04647 L 788.789776 1095.117864 L 832.069337 1080.547322 L 870.388572 1051.565717 L 880.156932 1040.467459 L 896.444783 1015.08137 L 904.139088 1000.779043 L 916.641428 955.936569 L 917.540668 937.342818 L 916.641428 922.576553 L 904.139088 874.769228 L 880.156932 836.247905 L 870.388572 823.359138 L 846.565959 804.062231 L 818.94333 788.440581 L 788.789776 780.270929 L 757.497667 775.979506 L 726.21281 780.270929 L 698.35812 788.440581 L 659.371706 812.891545 L 646.680816 823.359138 L 628.318911 848.049319 L 612.226862 874.769228 L 601.095139 922.576553 L 599.100856 937.342818 L 601.095139 955.936569 L 612.226862 1000.779043 L 620.588346 1015.08137 L 636.912456 1040.467459 L 646.680816 1051.565717 L 671.598472 1071.949977 L 685.195854 1080.547322 L 726.21281 1095.117864 Z M 757.497667 1098.04647" style="fill:none;stroke-width:0.45;stroke-linecap:butt;stroke-linejoin:miter;stroke:#363639;stroke-opacity:1;stroke-miterlimit:4;"/><path d="M 756.421875 537.429688 L 738.222656 512.527344 L 722.609375 485.164062 L 706.722656 447.78125 L 698.917969 422.625 L 691.089844 384.652344 L 689.636719 359.855469 L 690.734375 347.878906 L 679.371094 355.816406 L 666.074219 363.140625 L 652.417969 367.285156 L 635.414062 371.582031 L 601.75 371.582031 L 581.59375 367.285156 L 564.488281 361.5625 L 549.359375 353.878906 L 537.132812 344.21875 L 535.324219 403.21875 L 526.402344 452.683594 L 498.945312 535.976562 L 756.421875 537.429688" style="stroke:none;fill-rule:nonzero;fill:#ac9e9a;fill-opacity:1;"/><path transform="matrix(0.538649,0,0,-0.538866,208.599502,753.691566)" d="M 1017.029993 401.328108 L 983.243218 447.540647 L 954.257225 498.320073 L 924.763597 567.693249 L 910.274227 614.376975 L 895.741345 684.844754 L 893.043624 730.861569 L 895.081418 753.087082 L 873.985533 738.357062 L 849.299939 724.765139 L 823.947167 717.073922 L 792.379485 709.099994 L 729.88229 709.099994 L 692.462295 717.073922 L 660.706062 727.693745 L 632.619309 741.952579 L 609.920746 759.879419 L 606.563099 650.390135 L 589.999675 558.595722 L 539.025809 404.024746 Z M 1017.029993 401.328108" style="fill:none;stroke-width:0.45;stroke-linecap:butt;stroke-linejoin:miter;stroke:#363639;stroke-opacity:1;stroke-miterlimit:4;"/><path d="M 618.332031 180.914062 L 624.199219 180.914062 L 636.910156 183.378906 L 648.609375 187.757812 L 653.742188 191.417969 L 664.601562 200.363281 L 668.15625 204.386719 L 678.277344 220.507812 L 682.695312 232.84375 L 683.410156 246.90625 L 682.695312 259.828125 L 678.277344 272.902344 L 672.300781 284.246094 L 664.601562 294.015625 L 653.742188 301.96875 L 643.117188 308.074219 L 630.785156 312.09375 L 618.332031 313.335938 L 604.90625 312.09375 L 592.933594 308.074219 L 588.429688 304.285156 L 581.59375 301.96875 L 572.292969 294.015625 L 564.488281 284.246094 L 561.308594 277.910156 L 558.660156 272.902344 L 554.617188 259.828125 L 553.882812 252.882812 L 552.410156 246.90625 L 553.882812 239.203125 L 554.617188 232.84375 L 558.660156 220.507812 L 564.488281 209.523438 L 572.292969 200.363281 L 581.59375 191.417969 L 599.164062 183.378906 L 618.332031 180.914062" style="stroke:none;fill-rule:nonzero;fill:#363639;fill-opacity:1;"/><path transform="matrix(0.538649,0,0,-0.538866,208.599502,753.691566)" d="M 760.666764 1062.932189 L 771.559173 1062.932189 L 795.156977 1058.358054 L 816.876528 1050.231896 L 826.405574 1043.439559 L 846.565959 1026.83929 L 853.165222 1019.372794 L 871.954991 989.456064 L 880.156932 966.563641 L 881.484036 940.467148 L 880.156932 916.487371 L 871.954991 892.224882 L 860.859527 871.173711 L 846.565959 853.043898 L 826.405574 838.277633 L 806.680305 826.954654 L 783.785939 819.495407 L 760.666764 817.190217 L 735.741856 819.495407 L 713.514668 826.954654 L 705.153185 833.986209 L 692.462295 838.277633 L 675.195432 853.043898 L 660.706062 871.173711 L 654.802985 882.931631 L 649.886172 892.224882 L 642.380417 916.487371 L 641.017053 929.376139 L 638.283072 940.467148 L 641.017053 954.762227 L 642.380417 966.563641 L 649.886172 989.456064 L 660.706062 1009.840325 L 675.195432 1026.83929 L 692.462295 1043.439559 L 725.081508 1058.358054 Z M 760.666764 1062.932189" style="fill:none;stroke-width:0.45;stroke-linecap:butt;stroke-linejoin:miter;stroke:#363639;stroke-opacity:1;stroke-miterlimit:4;"/><g clip-path="url(#c1b332893f)" clip-rule="nonzero"><path d="M 268.945312 570.035156 L 253.058594 570.035156 L 247.210938 570.414062 L 243.042969 572.476562 L 240.371094 574.941406 L 239.761719 578.117188 L 239.761719 589.210938 L 253.058594 734.429688 L 256.847656 737.714844 L 258.929688 740.179688 L 260.023438 740.179688 L 268.945312 737.714844 L 268.945312 570.035156" style="stroke:none;fill-rule:nonzero;fill:#363639;fill-opacity:1;"/></g><g clip-path="url(#def57e77c1)" clip-rule="nonzero"><path transform="matrix(0.538649,0,0,-0.538866,208.599502,753.691566)" d="M 112.03175 340.820491 L 82.538122 340.820491 L 71.681972 340.117335 L 63.944155 336.28985 L 58.98383 331.715714 L 57.852528 325.822256 L 57.852528 305.235023 L 82.538122 35.745243 L 89.572501 29.648812 L 93.437783 25.074677 L 95.468326 25.074677 L 112.03175 29.648812 Z M 112.03175 340.820491" style="fill:none;stroke-width:0.45;stroke-linecap:butt;stroke-linejoin:miter;stroke:#363639;stroke-opacity:1;stroke-miterlimit:4;"/></g><g clip-path="url(#3bb6c4ca66)" clip-rule="nonzero"><path d="M 281.886719 542.921875 L 274.058594 546.332031 L 264.0625 553.070312 L 260.761719 557.109375 L 256.847656 564.058594 L 253.058594 574.941406 L 251.984375 587.148438 L 251.984375 718.792969 L 253.921875 728.8125 L 255.753906 733.335938 L 257.960938 736.515625 L 261.621094 740.410156 L 1135.371094 740.410156 L 1145.238281 734.429688 L 1149.761719 727.210938 L 1149.046875 590.683594 L 1147.449219 577.738281 L 1144.144531 567.109375 L 1140.484375 560.394531 L 1134.632812 551.976562 L 1127.417969 545.617188 L 1121.546875 542.921875 L 281.886719 542.921875" style="stroke:none;fill-rule:nonzero;fill:#ac9e9a;fill-opacity:1;"/></g><g clip-path="url(#2e3e577795)" clip-rule="nonzero"><path transform="matrix(0.538649,0,0,-0.538866,208.599502,753.691566)" d="M 136.057418 391.135978 L 121.524536 384.807579 L 102.966829 372.303009 L 96.838942 364.807517 L 89.572501 351.9115 L 82.538122 331.715714 L 80.543839 309.062509 L 80.543839 64.763093 L 84.1408 46.169342 L 87.541958 37.77497 L 91.639303 31.874263 L 98.434368 24.646984 L 1720.547667 24.646984 L 1738.86606 35.745243 L 1747.263804 49.141442 L 1745.936699 302.502141 L 1742.970657 326.525412 L 1736.835518 346.250011 L 1730.040453 358.711086 L 1719.177051 374.332737 L 1705.782723 386.13415 L 1694.883062 391.135978 Z M 136.057418 391.135978" style="fill:none;stroke-width:0.45;stroke-linecap:butt;stroke-linejoin:miter;stroke:#363639;stroke-opacity:1;stroke-miterlimit:4;"/></g><g clip-path="url(#a28d1ca5d8)" clip-rule="nonzero"><path d="M 265.769531 516.167969 L 275.046875 517.894531 L 285.652344 523.640625 L 293.960938 532.316406 L 299.453125 540.734375 L 305.199219 553.070312 L 310.691406 571.53125 L 313.488281 600.578125 L 312.035156 623.542969 L 307.996094 642.464844 L 301.390625 660.0625 L 294.699219 672.628906 L 290.070312 677.410156 L 283.714844 684.101562 L 279.296875 687.175781 L 273.699219 689.871094 L 265.769531 691.089844 L 1146.710938 691.804688 L 1150.246094 690.355469 L 1158.074219 684.734375 L 1164.40625 676.671875 L 1169.164062 666.757812 L 1172.488281 654.191406 L 1175.136719 640.886719 L 1177.117188 610.21875 L 1175.136719 587.148438 L 1172.488281 572.476562 L 1168.320312 558.941406 L 1163.1875 546.332031 L 1156.222656 535.113281 L 1148.414062 526.085938 L 1138.546875 520.570312 L 1128.152344 517.894531 L 265.769531 516.167969" style="stroke:none;fill-rule:nonzero;fill:#ac9e9a;fill-opacity:1;"/></g><g clip-path="url(#12447e32a2)" clip-rule="nonzero"><path transform="matrix(0.538649,0,0,-0.538866,208.599502,753.691566)" d="M 106.135925 440.784555 L 123.359276 437.580486 L 143.048285 426.917169 L 158.473155 410.817083 L 168.669379 395.195433 L 179.336979 372.303009 L 189.533202 338.044114 L 194.725589 284.140358 L 192.027869 241.523336 L 184.529366 206.409055 L 172.26634 173.752194 L 159.843772 150.432079 L 151.250226 141.559271 L 139.451324 129.14169 L 131.249383 123.436707 L 120.857357 118.434879 L 106.135925 116.173183 L 1741.600041 114.846611 L 1748.163044 117.536 L 1762.695926 127.967348 L 1774.451316 142.929337 L 1783.284175 161.327364 L 1789.455574 184.64748 L 1794.372387 209.337662 L 1798.049119 266.249763 L 1794.372387 309.062509 L 1789.455574 336.28985 L 1781.717757 361.407724 L 1772.188712 384.807579 L 1759.258508 405.626781 L 1744.769137 422.379279 L 1726.443492 432.614903 L 1707.146087 437.580486 Z M 106.135925 440.784555" style="fill:none;stroke-width:0.45;stroke-linecap:butt;stroke-linejoin:miter;stroke:#363639;stroke-opacity:1;stroke-miterlimit:4;"/></g><path d="M 591.585938 516.167969 L 618.710938 453.042969 L 633.101562 397.242188 L 638.363281 355.097656 L 637.625 327.355469 L 634.699219 301.488281 L 626.746094 287.804688 L 624.199219 280.332031 L 618.941406 265.324219 L 616.625 248.589844 L 615.425781 232.464844 L 616.625 216.109375 L 618.941406 198.765625 L 630.40625 167.378906 L 638.363281 153.214844 L 653.238281 133.554688 L 673.015625 118.039062 L 695.128906 106.777344 L 713.332031 101.179688 L 732.246094 99.347656 L 754.824219 100.570312 L 765.089844 101.769531 L 784.238281 108.125 L 792.675781 111.789062 L 807.929688 121.808594 L 815.253906 127.914062 L 826.972656 140.878906 L 836.398438 155.277344 L 846.644531 179.714844 L 852.371094 205.101562 L 853.96875 231.730469 L 851.886719 248.589844 L 846.265625 272.902344 L 839.914062 286.6875 L 831.371094 298.6875 L 827.351562 304.285156 L 824.070312 322.976562 L 824.070312 347.878906 L 830.277344 387.578125 L 842.984375 427.023438 L 874.96875 488.828125 L 894.136719 516.167969 L 591.585938 516.167969" style="stroke:none;fill-rule:nonzero;fill:#ac9e9a;fill-opacity:1;"/><g clip-path="url(#87dab7c369)" clip-rule="nonzero"><path transform="matrix(0.538649,0,0,-0.538866,208.599502,753.691566)" d="M 711.01275 440.784555 L 761.370201 557.928811 L 788.086338 661.481144 L 797.854697 739.690883 L 796.484081 791.173463 L 791.05238 839.176512 L 776.287436 864.569849 L 771.559173 878.437235 L 761.798066 906.287992 L 757.497667 937.342818 L 755.271322 967.266797 L 757.497667 997.618467 L 761.798066 1029.804142 L 783.082501 1088.050063 L 797.854697 1114.335031 L 825.470074 1150.819377 L 862.186632 1179.612507 L 903.239848 1200.5042 L 937.033875 1210.899303 L 972.147754 1214.299096 L 1014.063951 1212.030151 L 1033.122042 1209.8047 L 1068.671038 1198.010535 L 1084.335222 1191.210949 L 1112.654036 1172.617198 L 1126.251419 1161.28697 L 1148.00723 1137.227454 L 1165.506154 1110.507545 L 1184.527985 1065.15764 L 1195.159325 1018.046222 L 1198.125368 968.629613 L 1194.260085 937.342818 L 1183.824548 892.224882 L 1172.032898 866.64307 L 1156.172911 844.374063 L 1148.710668 833.986209 L 1142.619041 799.299621 L 1142.619041 753.087082 L 1154.142369 679.415234 L 1177.73292 606.207323 L 1237.111782 491.520487 L 1272.697037 440.784555 Z M 711.01275 440.784555" style="fill:none;stroke-width:0.45;stroke-linecap:butt;stroke-linejoin:miter;stroke:#363639;stroke-opacity:1;stroke-miterlimit:4;"/></g><path d="M 735.421875 140.878906 L 744.324219 140.878906 L 760.082031 143.574219 L 776.074219 149.785156 L 796.335938 165.929688 L 801.09375 171.421875 L 810.394531 184.578125 L 816.976562 200.363281 L 819.292969 208.765625 L 822.089844 227.203125 L 819.292969 244.210938 L 814.539062 260.566406 L 810.394531 267.890625 L 806.351562 275.46875 L 796.335938 288.667969 L 783.039062 298.6875 L 776.074219 303.066406 L 768.269531 307.359375 L 752.277344 312.09375 L 735.421875 313.675781 L 718.445312 312.09375 L 702.347656 307.359375 L 688.777344 298.6875 L 675.332031 288.667969 L 665.316406 275.46875 L 661.066406 267.890625 L 656.792969 260.566406 L 652.417969 244.210938 L 649.722656 227.203125 L 652.417969 208.765625 L 656.792969 193.019531 L 661.066406 184.578125 L 670.46875 171.421875 L 688.777344 154.5625 L 695.613281 149.785156 L 711.015625 143.574219 L 735.421875 140.878906" style="stroke:none;fill-rule:nonzero;fill:#ac9e9a;fill-opacity:1;"/><path transform="matrix(0.538649,0,0,-0.538866,208.599502,753.691566)" d="M 978.043579 1137.227454 L 994.570744 1137.227454 L 1023.825058 1132.225626 L 1053.514489 1120.699675 L 1091.130287 1090.739452 L 1099.963146 1080.547322 L 1117.230009 1056.132603 L 1129.449523 1026.83929 L 1133.749922 1011.246636 L 1138.942309 977.031234 L 1133.749922 945.468976 L 1124.924314 915.117305 L 1117.230009 901.525382 L 1109.724254 887.462272 L 1091.130287 862.967814 L 1066.444693 844.374063 L 1053.514489 836.247905 L 1039.025119 828.281226 L 1009.335688 819.495407 L 978.043579 816.559552 L 946.52666 819.495407 L 916.641428 828.281226 L 891.448198 844.374063 L 866.48703 862.967814 L 847.893063 887.462272 L 840.002956 901.525382 L 832.069337 915.117305 L 823.947167 945.468976 L 818.94333 977.031234 L 823.947167 1011.246636 L 832.069337 1040.467459 L 840.002956 1056.132603 L 857.458369 1080.547322 L 891.448198 1111.834117 L 904.139088 1120.699675 L 932.733476 1132.225626 Z M 978.043579 1137.227454" style="fill:none;stroke-width:0.45;stroke-linecap:butt;stroke-linejoin:miter;stroke:#363639;stroke-opacity:1;stroke-miterlimit:4;"/><path d="M 874.589844 516.167969 L 856.660156 491.269531 L 832.96875 445.359375 L 817.335938 401.238281 L 810.394531 363.140625 L 808.667969 338.722656 L 810.015625 326.386719 L 798.652344 334.09375 L 770.941406 346.53125 L 753.960938 350.214844 L 720.527344 350.214844 L 700.371094 345.796875 L 682.695312 340.195312 L 668.15625 332.367188 L 656.078125 322.976562 L 656.078125 362.550781 L 653.742188 383.558594 L 647.515625 423.003906 L 637.246094 465.125 L 619.320312 514.589844 L 874.589844 516.167969" style="stroke:none;fill-rule:nonzero;fill:#ac9e9a;fill-opacity:1;"/><path transform="matrix(0.538649,0,0,-0.538866,208.599502,753.691566)" d="M 1236.408344 440.784555 L 1203.121952 486.989846 L 1159.138954 572.187645 L 1130.116701 654.065391 L 1117.230009 724.765139 L 1114.024653 770.078799 L 1116.526571 792.971222 L 1095.430686 778.668894 L 1043.985444 755.587996 L 1012.461273 748.752165 L 950.391943 748.752165 L 912.971947 756.950813 L 880.156932 767.345916 L 853.165222 781.872963 L 830.742232 799.299621 L 830.742232 725.859742 L 826.405574 686.874481 L 814.845986 613.673819 L 795.780643 535.507575 L 762.501504 443.713162 Z M 1236.408344 440.784555" style="fill:none;stroke-width:0.45;stroke-linecap:butt;stroke-linejoin:miter;stroke:#363639;stroke-opacity:1;stroke-miterlimit:4;"/><path d="M 736.621094 159.675781 L 743.230469 159.675781 L 755.203125 161.992188 L 773.023438 170.179688 L 783.039062 178.011719 L 790.699219 187.757812 L 797.050781 198.765625 L 800.714844 210.488281 L 801.09375 218.046875 L 802.921875 225.140625 L 801.09375 231.730469 L 800.714844 238.570312 L 797.050781 251.640625 L 793.875 256.546875 L 790.699219 262.882812 L 783.039062 272.667969 L 773.023438 280.332031 L 761.28125 286.308594 L 748.953125 290.835938 L 736.621094 291.949219 L 724.1875 290.835938 L 711.246094 286.308594 L 700.371094 280.332031 L 690.734375 272.667969 L 682.695312 262.882812 L 676.675781 251.640625 L 672.679688 238.570312 L 670.847656 225.140625 L 672.679688 210.488281 L 676.675781 198.765625 L 682.695312 187.757812 L 690.734375 178.011719 L 700.371094 170.179688 L 711.246094 164.097656 L 724.1875 160.390625 L 736.621094 159.675781" style="stroke:none;fill-rule:nonzero;fill:#363639;fill-opacity:1;"/><path transform="matrix(0.538649,0,0,-0.538866,208.599502,753.691566)" d="M 980.269924 1102.345142 L 992.540202 1102.345142 L 1014.767389 1098.04647 L 1047.850726 1082.852512 L 1066.444693 1068.318215 L 1080.665742 1050.231896 L 1092.457392 1029.804142 L 1099.259709 1008.049815 L 1099.963146 994.022951 L 1103.357053 980.85872 L 1099.963146 968.629613 L 1099.259709 955.936569 L 1092.457392 931.681329 L 1086.561567 922.576553 L 1080.665742 910.818633 L 1066.444693 892.659824 L 1047.850726 878.437235 L 1026.051403 867.346226 L 1003.16429 858.944605 L 980.269924 856.871384 L 957.187008 858.944605 L 933.16134 867.346226 L 912.971947 878.437235 L 895.081418 892.659824 L 880.156932 910.818633 L 868.981697 931.681329 L 861.562965 955.936569 L 858.161806 980.85872 L 861.562965 1008.049815 L 868.981697 1029.804142 L 880.156932 1050.231896 L 895.081418 1068.318215 L 912.971947 1082.852512 L 933.16134 1094.139245 L 957.187008 1101.01857 Z M 980.269924 1102.345142" style="fill:none;stroke-width:0.45;stroke-linecap:butt;stroke-linejoin:miter;stroke:#363639;stroke-opacity:1;stroke-miterlimit:4;"/><path d="M 680.234375 192.175781 L 685.242188 183.863281 L 690.734375 177.398438 L 698.433594 171.652344 L 710.636719 164.582031 L 724.925781 189.839844 L 728.921875 201.945312 L 734.308594 223.917969 L 734.5625 248.96875 L 732.246094 275.953125 L 728.921875 290.835938 L 722.945312 289.867188 L 707.101562 284.753906 L 699.273438 279.617188 L 696.960938 277.300781 L 680.234375 192.175781" style="stroke:none;fill-rule:nonzero;fill:#ac9e9a;fill-opacity:1;"/><path transform="matrix(0.538649,0,0,-0.538866,208.599502,753.691566)" d="M 875.588211 1042.033248 L 884.885195 1057.459175 L 895.081418 1069.456312 L 909.374987 1080.119629 L 932.030038 1093.240366 L 958.557624 1046.368165 L 965.976356 1023.903435 L 975.976777 983.127665 L 976.448153 936.639663 L 972.147754 886.563393 L 965.976356 858.944605 L 954.880892 860.742363 L 925.467035 870.231338 L 910.934153 879.763807 L 906.641006 884.062479 Z M 875.588211 1042.033248" style="fill:none;stroke-width:0.45;stroke-linecap:butt;stroke-linejoin:miter;stroke:#363639;stroke-opacity:1;stroke-miterlimit:4;"/><path d="M 681.097656 190.703125 L 687.660156 198.765625 L 694.773438 210.238281 L 698.433594 219.878906 L 701.335938 232.464844 L 702.347656 252.882812 L 700.371094 270.566406 L 697.675781 277.300781 L 695.128906 275.953125 L 686.691406 268.25 L 685.242188 266.1875 L 683.410156 263.492188 L 682.695312 259.828125 L 683.410156 246.527344 L 682.695312 236.507812 L 680.71875 227.203125 L 677.433594 219.164062 L 672.300781 210.238281 L 677.054688 196.679688 L 678.65625 193.398438 L 681.097656 190.703125" style="stroke:none;fill-rule:nonzero;fill:#ac9e9a;fill-opacity:1;"/><path transform="matrix(0.538649,0,0,-0.538866,208.599502,753.691566)" d="M 877.190889 1044.766131 L 889.374144 1029.804142 L 902.579921 1008.513753 L 909.374987 990.623158 L 914.763176 967.266797 L 916.641428 929.376139 L 912.971947 896.5598 L 907.968111 884.062479 L 903.239848 886.563393 L 887.575663 900.858472 L 884.885195 904.685957 L 881.484036 909.687785 L 880.156932 916.487371 L 881.484036 941.170304 L 880.156932 959.764055 L 876.487452 977.031234 L 870.388572 991.949729 L 860.859527 1008.513753 L 869.685135 1033.675121 L 872.658429 1039.764303 Z M 877.190889 1044.766131" style="fill:none;stroke-width:0.45;stroke-linecap:butt;stroke-linejoin:miter;stroke:#363639;stroke-opacity:1;stroke-miterlimit:4;"/><path transform="matrix(0.538649,0,0,-0.538866,208.599502,753.691566)" d="M 42.891781 377.304837 L 110.429072 377.304837" style="fill:none;stroke-width:0.45;stroke-linecap:butt;stroke-linejoin:miter;stroke:#363639;stroke-opacity:1;stroke-miterlimit:4;"/><path transform="matrix(0.538649,0,0,-0.538866,208.599502,753.691566)" d="M 39.686425 373.006165 L 104.961111 373.006165" style="fill:none;stroke-width:0.45;stroke-linecap:butt;stroke-linejoin:miter;stroke:#363639;stroke-opacity:1;stroke-miterlimit:4;"/><path d="M 298.738281 664.820312 L 301.769531 656.253906 L 306.652344 642.824219 L 308.710938 635.015625 L 309.574219 627.941406 L 310.691406 620.238281 L 311.660156 612.175781 L 312.035156 604.621094 L 312.035156 596.535156 L 311.660156 587.507812 L 309.953125 579.695312 L 309.089844 571.152344 L 306.652344 562.960938 L 303.851562 554.667969 L 299.074219 542.921875 L 301.769531 556.015625 L 303.851562 564.058594 L 305.683594 571.53125 L 306.652344 579.695312 L 307.640625 587.148438 L 307.640625 610.21875 L 307.261719 617.4375 L 306.0625 625.144531 L 305.199219 632.320312 L 303.851562 640.152344 L 303.117188 646.867188 L 301.054688 654.191406 L 298.738281 664.820312" style="stroke:none;fill-rule:nonzero;fill:#363639;fill-opacity:1;"/><path transform="matrix(0.538649,0,0,-0.538866,208.599502,753.691566)" d="M 167.342275 164.922881 L 172.969778 180.819995 L 182.034699 205.742145 L 185.85647 220.232947 L 187.459148 233.360933 L 189.533202 247.656012 L 191.331683 262.618001 L 192.027869 276.637617 L 192.027869 291.6431 L 191.331683 308.395598 L 188.162586 322.89365 L 186.559908 338.747269 L 182.034699 353.948476 L 176.83506 369.338158 L 167.965941 391.135978 L 172.969778 366.837244 L 176.83506 351.9115 L 180.236219 338.044114 L 182.034699 322.89365 L 183.869439 309.062509 L 183.869439 266.249763 L 183.166001 252.853563 L 180.939657 238.551236 L 179.336979 225.234775 L 176.83506 210.700479 L 175.471696 198.239403 L 171.642673 184.64748 Z M 167.342275 164.922881" style="fill:none;stroke-width:0.45;stroke-linecap:butt;stroke-linejoin:miter;stroke:#363639;stroke-opacity:1;stroke-miterlimit:4;"/><path d="M 817.335938 199.984375 L 819.292969 208.765625 L 820.996094 216.109375 L 822.089844 223.539062 L 822.089844 230.527344 L 819.292969 238.570312 L 814.160156 247.875 L 805.972656 255.304688 L 797.914062 258 L 797.914062 250.566406 L 800.25 242.230469 L 802.3125 234.421875 L 802.921875 226.867188 L 811.109375 222.824219 L 815.988281 215.121094 L 817.335938 205.859375 L 817.335938 199.984375" style="stroke:none;fill-rule:nonzero;fill:#363639;fill-opacity:1;"/><path transform="matrix(0.538649,0,0,-0.538866,208.599502,753.691566)" d="M 1130.116701 1027.542446 L 1133.749922 1011.246636 L 1136.911766 997.618467 L 1138.942309 983.83082 L 1138.942309 970.862313 L 1133.749922 955.936569 L 1124.220876 938.66939 L 1109.020816 924.881743 L 1094.06007 919.879915 L 1094.06007 933.674811 L 1098.396728 949.144232 L 1102.225751 963.635035 L 1103.357053 977.654651 L 1118.557113 985.157392 L 1127.614783 999.452471 L 1130.116701 1016.639911 Z M 1130.116701 1027.542446" style="fill:none;stroke-width:0.45;stroke-linecap:butt;stroke-linejoin:miter;stroke:#ac9e9a;stroke-opacity:1;stroke-miterlimit:4;"/><path transform="matrix(0.538649,0,0,-0.538866,208.599502,753.691566)" d="M 1098.396728 999.452471 L 1105.155533 1005.353178 L 1109.724254 1011.246636 L 1112.654036 1018.046222 L 1114.024653 1023.903435 L 1114.024653 1029.804142 L 1114.72809 1037.734576 L 1114.72809 1044.062975 L 1114.024653 1050.898807 L 1114.024653 1057.459175 L 1112.654036 1064.454485 L 1109.724254 1069.456312 L 1106.054774 1076.24865 L 1102.225751 1082.149356" style="fill:none;stroke-width:0.45;stroke-linecap:butt;stroke-linejoin:miter;stroke:#363639;stroke-opacity:1;stroke-miterlimit:4;"/><path d="M 659.234375 187.039062 L 668.15625 178.011719 L 677.054688 174.9375 L 685.242188 174.9375 L 690.734375 177.398438 L 682.695312 187.039062 L 677.433594 196.324219 L 674.257812 206.699219 L 672.300781 214.046875 L 670.847656 221.855469 L 671.4375 232.84375 L 663.378906 234.800781 L 658.390625 241.894531 L 656.414062 252.25 L 657.402344 259.472656 L 652.417969 247.875 L 650.921875 237.222656 L 650.566406 226.003906 L 650.921875 215.730469 L 652.417969 205.101562 L 654.835938 196.324219 L 659.234375 187.039062" style="stroke:none;fill-rule:nonzero;fill:#363639;fill-opacity:1;"/><path transform="matrix(0.538649,0,0,-0.538866,208.599502,753.691566)" d="M 836.601797 1051.565717 L 853.165222 1068.318215 L 869.685135 1074.023199 L 884.885195 1074.023199 L 895.081418 1069.456312 L 880.156932 1051.565717 L 870.388572 1034.334783 L 864.492748 1015.08137 L 860.859527 1001.445953 L 858.161806 986.955151 L 859.256849 966.563641 L 844.296103 962.931879 L 835.042631 949.767648 L 831.365899 930.550481 L 833.200639 917.147033 L 823.947167 938.66939 L 821.169675 958.437483 L 820.509749 979.256685 L 821.169675 998.321623 L 823.947167 1018.046222 L 828.436116 1034.334783 Z M 836.601797 1051.565717" style="fill:none;stroke-width:0.45;stroke-linecap:butt;stroke-linejoin:miter;stroke:#ac9e9a;stroke-opacity:1;stroke-miterlimit:4;"/><path d="M 541.679688 209.859375 L 549.714844 201.945312 L 558.660156 197.671875 L 566.695312 198.765625 L 572.671875 200.722656 L 565.601562 208.175781 L 559.730469 216.46875 L 556.933594 223.539062 L 554.617188 232.464844 L 552.789062 240.402344 L 552.410156 249.808594 L 552.789062 255.683594 L 540.792969 263.492188 L 538.375 272.667969 L 538.734375 279.617188 L 540.792969 286.308594 L 535.679688 275.46875 L 533.621094 265.828125 L 532.378906 254.210938 L 532.378906 244.210938 L 533.242188 233.222656 L 535.324219 223.203125 L 538.375 215.121094 L 541.679688 209.859375" style="stroke:none;fill-rule:nonzero;fill:#363639;fill-opacity:1;"/><path transform="matrix(0.538649,0,0,-0.538866,208.599502,753.691566)" d="M 618.362001 1009.216909 L 633.279236 1023.903435 L 649.886172 1031.833869 L 664.803407 1029.804142 L 675.89887 1026.17238 L 662.772864 1012.341239 L 651.873203 996.951557 L 646.680816 983.83082 L 642.380417 967.266797 L 638.98651 952.536776 L 638.283072 935.081122 L 638.98651 924.178588 L 616.715811 909.687785 L 612.226862 892.659824 L 612.89404 879.763807 L 616.715811 867.346226 L 607.223026 887.462272 L 603.401255 905.352868 L 601.095139 926.91147 L 601.095139 945.468976 L 602.697817 965.860486 L 606.563099 984.454237 L 612.226862 999.452471 Z M 618.362001 1009.216909" style="fill:none;stroke-width:0.45;stroke-linecap:butt;stroke-linejoin:miter;stroke:#ac9e9a;stroke-opacity:1;stroke-miterlimit:4;"/><path transform="matrix(0.538649,0,0,-0.538866,208.599502,753.691566)" d="M 861.562965 1085.781118 L 866.48703 1090.116036 L 872.658429 1093.240366 L 877.850816 1095.117864 L 885.545121 1096.640159 L 892.151636 1096.640159 L 898.047461 1095.117864 L 904.139088 1093.240366 L 910.934153 1089.41288" style="fill:none;stroke-width:0.45;stroke-linecap:butt;stroke-linejoin:miter;stroke:#363639;stroke-opacity:1;stroke-miterlimit:4;"/><path transform="matrix(0.538649,0,0,-0.538866,208.599502,753.691566)" d="M 636.912456 1043.439559 L 643.011335 1048.629861 L 649.886172 1050.898807 L 654.375121 1052.225378 L 662.069426 1053.827413 L 667.965251 1053.827413 L 673.672526 1052.225378 L 680.467591 1050.231896 L 686.994334 1046.368165" style="fill:none;stroke-width:0.45;stroke-linecap:butt;stroke-linejoin:miter;stroke:#363639;stroke-opacity:1;stroke-miterlimit:4;"/><path d="M 655.339844 320.410156 L 667.039062 330.789062 L 676.339844 336.890625 L 686.355469 341.796875 L 696.601562 345.457031 L 706.722656 347.878906 L 718.085938 349.835938 L 728.921875 350.953125 L 740.285156 350.953125 L 751.898438 349.835938 L 762.039062 348.109375 L 772.644531 345.796875 L 782.28125 342.132812 L 791.222656 338.722656 L 799.03125 334.09375 L 810.394531 325.292969 L 810.015625 344.21875 L 810.394531 356.445312 L 811.96875 368.632812 L 814.160156 381.980469 L 816.976562 395.15625 L 820.03125 407.597656 L 824.070312 420.5625 L 828.214844 432.644531 L 833.328125 445.84375 L 838.566406 457.441406 L 844.6875 469.019531 L 851.273438 481.734375 L 857.988281 491.648438 L 864.953125 502.636719 L 876.546875 516.546875 L 857.988281 516.546875 L 848.097656 504.234375 L 842.226562 494.804688 L 836.398438 485.164062 L 831.011719 474.785156 L 826.238281 464.410156 L 820.996094 453.421875 L 816.976562 442.179688 L 812.328125 431.675781 L 808.667969 420.5625 L 805.972656 408.945312 L 802.921875 397.957031 L 800.714844 386.84375 L 798.652344 375.960938 L 797.914062 364.972656 L 797.050781 348.488281 L 784.617188 355.097656 L 776.074219 357.898438 L 766.921875 360.59375 L 757.285156 361.941406 L 748.363281 363.519531 L 738.707031 363.878906 L 728.921875 363.878906 L 720.273438 363.140625 L 710.636719 361.5625 L 700.746094 359.855469 L 691.46875 357.414062 L 683.410156 353.878906 L 674.742188 350.953125 L 666.660156 346.53125 L 655.339844 338.722656 L 655.339844 320.410156" style="stroke:none;fill-rule:nonzero;fill:#363639;fill-opacity:1;"/><path transform="matrix(0.538649,0,0,-0.538866,208.599502,753.691566)" d="M 829.371616 804.062231 L 851.091168 784.80157 L 868.35803 773.478592 L 886.951997 764.373815 L 905.973828 757.581478 L 924.763597 753.087082 L 945.859482 749.45532 L 965.976356 747.382099 L 987.072241 747.382099 L 1008.63225 749.45532 L 1027.458279 752.65939 L 1047.147288 756.950813 L 1065.037817 763.750399 L 1081.637501 770.078799 L 1096.134124 778.668894 L 1117.230009 795.000949 L 1116.526571 759.879419 L 1117.230009 737.189969 L 1120.159791 714.573009 L 1124.220876 689.803088 L 1129.449523 665.352124 L 1135.120538 642.263977 L 1142.619041 618.20446 L 1150.313346 595.783224 L 1159.806132 571.288766 L 1169.530979 549.766408 L 1180.902017 528.280296 L 1193.121531 504.684717 L 1205.587611 486.28669 L 1218.517815 465.895181 L 1240.041564 440.0814 L 1205.587611 440.0814 L 1187.225706 462.930329 L 1176.326045 480.429477 L 1165.506154 498.320073 L 1155.505733 517.580734 L 1146.643866 536.834146 L 1136.911766 557.225656 L 1129.449523 578.088352 L 1120.819718 597.580982 L 1114.024653 618.20446 L 1109.020816 639.763063 L 1103.357053 660.154572 L 1099.259709 680.778051 L 1095.430686 700.973836 L 1094.06007 721.365346 L 1092.457392 751.956234 L 1069.374476 739.690883 L 1053.514489 734.493331 L 1036.5232 729.491503 L 1018.632671 726.99059 L 1002.069247 724.061983 L 984.142458 723.395073 L 965.976356 723.395073 L 949.920567 724.765139 L 932.030038 727.693745 L 913.675385 730.861569 L 896.444783 735.39221 L 881.484036 741.952579 L 865.391988 747.382099 L 850.38773 755.587996 L 829.371616 770.078799 Z M 829.371616 804.062231" style="fill:none;stroke-width:0.45;stroke-linecap:butt;stroke-linejoin:miter;stroke:#363639;stroke-opacity:1;stroke-miterlimit:4;"/><path d="M 766.058594 347.523438 L 764.710938 355.097656 L 761.28125 361.078125 L 768.878906 359.855469 L 776.074219 351.773438 L 776.453125 344.21875 L 768.605469 346.53125 L 766.058594 347.523438" style="stroke:none;fill-rule:nonzero;fill:#ffffff;fill-opacity:1;"/><path transform="matrix(0.538649,0,0,-0.538866,208.599502,753.691566)" d="M 1034.920522 753.746744 L 1032.418604 739.690883 L 1026.051403 728.592624 L 1040.156421 730.861569 L 1053.514489 745.859804 L 1054.217927 759.879419 L 1039.648785 755.587996 Z M 1034.920522 753.746744" style="fill:none;stroke-width:0.45;stroke-linecap:butt;stroke-linejoin:miter;stroke:#ffffff;stroke-opacity:1;stroke-miterlimit:4;"/><path transform="matrix(0.538649,0,0,-0.538866,208.599502,753.691566)" d="M 1063.239337 763.750399 L 1065.037817 756.950813 L 1063.239337 750.158476 L 1062.579411 744.881185 L 1059.84543 738.357062" style="fill:none;stroke-width:0.45;stroke-linecap:butt;stroke-linejoin:miter;stroke:#ffffff;stroke-opacity:1;stroke-miterlimit:4;"/><path d="M 824.785156 460.746094 L 822.089844 451.441406 L 819.292969 443.402344 L 817.945312 434.246094 L 818.304688 426.058594 L 822.089844 417.238281 L 828.214844 432.644531 L 822.089844 440.222656 L 822.46875 447.78125 L 823.3125 455.484375 L 824.785156 460.746094" style="stroke:none;fill-rule:nonzero;fill:#ffffff;fill-opacity:1;"/><path transform="matrix(0.538649,0,0,-0.538866,208.599502,753.691566)" d="M 1143.946145 543.633733 L 1138.942309 560.900912 L 1133.749922 575.819407 L 1131.248003 592.811123 L 1131.915182 608.005081 L 1138.942309 624.373381 L 1150.313346 595.783224 L 1138.942309 581.720114 L 1139.645747 567.693249 L 1141.212165 553.39817 Z M 1143.946145 543.633733" style="fill:none;stroke-width:0.45;stroke-linecap:butt;stroke-linejoin:miter;stroke:#ffffff;stroke-opacity:1;stroke-miterlimit:4;"/><path transform="matrix(0.538649,0,0,-0.538866,208.599502,753.691566)" d="M 1124.924314 586.287 L 1122.146822 592.811123 L 1122.146822 598.284138 L 1121.523156 605.076475 L 1121.523156 618.20446 L 1122.146822 624.373381 L 1124.220876 631.172967 L 1126.251419 637.262149 L 1129.449523 642.887393" style="fill:none;stroke-width:0.45;stroke-linecap:butt;stroke-linejoin:miter;stroke:#ffffff;stroke-opacity:1;stroke-miterlimit:4;"/><path d="M 275.300781 690.355469 L 283.714844 686.3125 L 291.269531 679.367188 L 297.015625 671.660156 L 301.769531 663.726562 L 305.683594 655.285156 L 1171.730469 654.570312 L 1169.164062 662.988281 L 1165.878906 670.566406 L 1161.460938 678.609375 L 1153.421875 687.175781 L 1146.710938 690.355469 L 275.300781 690.355469" style="stroke:none;fill-rule:nonzero;fill:#363639;fill-opacity:1;"/><path transform="matrix(0.538649,0,0,-0.538866,208.599502,753.691566)" d="M 123.830652 117.536 L 139.451324 125.038742 L 153.476571 137.927509 L 164.14417 152.229837 L 172.969778 166.952608 L 180.236219 182.617753 L 1788.048698 183.944325 L 1783.284175 168.322674 L 1777.185296 154.259564 L 1768.983355 139.33382 L 1754.066121 123.436707 L 1741.600041 117.536 Z M 123.830652 117.536" style="fill:none;stroke-width:0.45;stroke-linecap:butt;stroke-linejoin:miter;stroke:#363639;stroke-opacity:1;stroke-miterlimit:4;"/><path transform="matrix(0.538649,0,0,-0.538866,208.599502,753.691566)" d="M 187.459148 196.209676 L 1788.048698 196.209676" style="fill:none;stroke-width:0.45;stroke-linecap:butt;stroke-linejoin:miter;stroke:#ffffff;stroke-opacity:1;stroke-miterlimit:4;"/><path d="M 273.699219 516.90625 L 281.402344 518.484375 L 289.3125 524.609375 L 1149.046875 524.609375 L 1140.125 523.261719 L 1131.6875 519.832031 L 1124.492188 516.90625 L 273.699219 516.90625" style="stroke:none;fill-rule:nonzero;fill:#363639;fill-opacity:1;"/><path transform="matrix(0.538649,0,0,-0.538866,208.599502,753.691566)" d="M 120.857357 439.41449 L 135.158178 436.485883 L 149.84335 425.119411 L 1745.936699 425.119411 L 1729.373275 427.620325 L 1713.70909 433.984969 L 1700.351022 439.41449 Z M 120.857357 439.41449" style="fill:none;stroke-width:0.45;stroke-linecap:butt;stroke-linejoin:miter;stroke:#ac9e9a;stroke-opacity:1;stroke-miterlimit:4;"/><path transform="matrix(0.538649,0,0,-0.538866,208.599502,753.691566)" d="M 169.336557 400.429229 L 1759.258508 400.429229" style="fill:none;stroke-width:0.45;stroke-linecap:butt;stroke-linejoin:miter;stroke:#ffffff;stroke-opacity:1;stroke-miterlimit:4;"/><path transform="matrix(0.538649,0,0,-0.538866,208.599502,753.691566)" d="M 180.939657 370.505251 L 1774.451316 370.505251" style="fill:none;stroke-width:0.45;stroke-linecap:butt;stroke-linejoin:miter;stroke:#ffffff;stroke-opacity:1;stroke-miterlimit:4;"/><path d="M 536.796875 343.480469 L 549.714844 352.890625 L 559.375 358.761719 L 584.414062 365.835938 L 606.609375 369.644531 L 637.246094 369.644531 L 637.246094 385.496094 L 597.078125 385.496094 L 587.464844 383.558594 L 576.710938 379.285156 L 565.222656 375.960938 L 555.332031 372.445312 L 544.601562 365.835938 L 538.375 359.855469 L 536.796875 343.480469" style="stroke:none;fill-rule:nonzero;fill:#363639;fill-opacity:1;"/><path transform="matrix(0.538649,0,0,-0.538866,208.599502,753.691566)" d="M 609.29708 761.249485 L 633.279236 743.786582 L 651.213276 732.891297 L 697.698193 719.763311 L 738.9037 712.695511 L 795.780643 712.695511 L 795.780643 683.278964 L 721.208974 683.278964 L 703.361956 686.874481 L 683.397373 694.804915 L 662.069426 700.973836 L 643.707521 707.497959 L 623.78645 719.763311 L 612.226862 730.861569 Z M 609.29708 761.249485" style="fill:none;stroke-width:0.45;stroke-linecap:butt;stroke-linejoin:miter;stroke:#363639;stroke-opacity:1;stroke-miterlimit:4;"/><g clip-path="url(#58ad6b8f93)" clip-rule="nonzero"><path d="M 1286.230469 89.222656 C 1287.753906 84.84375 1291.988281 81.546875 1296.601562 81.140625 C 1298.019531 81.015625 1299.503906 81.15625 1300.742188 81.855469 C 1304.480469 83.957031 1304.214844 89.636719 1307.179688 92.734375 C 1308.605469 94.230469 1310.660156 94.976562 1312.152344 96.410156 C 1312.367188 96.617188 1312.566406 96.835938 1312.753906 97.066406 C 1312.9375 97.296875 1313.109375 97.539062 1313.265625 97.789062 C 1313.421875 98.042969 1313.5625 98.304688 1313.6875 98.574219 C 1313.8125 98.839844 1313.921875 99.117188 1314.011719 99.402344 C 1314.101562 99.683594 1314.171875 99.96875 1314.226562 100.261719 C 1314.28125 100.554688 1314.320312 100.847656 1314.335938 101.144531 C 1314.355469 101.441406 1314.355469 101.734375 1314.335938 102.03125 C 1314.320312 102.328125 1314.28125 102.621094 1314.226562 102.914062 C 1314.171875 103.207031 1314.101562 103.492188 1314.011719 103.773438 C 1313.921875 104.058594 1313.8125 104.332031 1313.6875 104.601562 C 1313.566406 104.871094 1313.425781 105.132812 1313.269531 105.386719 C 1313.109375 105.636719 1312.941406 105.878906 1312.753906 106.109375 C 1312.566406 106.339844 1312.367188 106.558594 1312.152344 106.765625 C 1311.941406 106.96875 1311.714844 107.160156 1311.476562 107.339844 C 1311.242188 107.519531 1310.992188 107.679688 1310.734375 107.828125 C 1310.480469 107.976562 1310.214844 108.105469 1309.941406 108.222656 C 1308.070312 109.003906 1305.960938 108.964844 1304.039062 109.613281 C 1300.566406 110.785156 1298.175781 114.007812 1294.878906 115.613281 C 1293.757812 116.152344 1292.578125 116.492188 1291.34375 116.628906 C 1290.105469 116.765625 1288.882812 116.691406 1287.671875 116.410156 C 1286.023438 116.019531 1284.386719 115.164062 1283.558594 113.691406 C 1281.953125 110.847656 1283.921875 107.253906 1283.324219 104.046875 C 1282.984375 102.222656 1281.839844 100.671875 1280.953125 99.039062 C 1280.070312 97.40625 1279.425781 95.429688 1280.15625 93.722656 C 1281.023438 91.691406 1283.410156 90.875 1285.53125 90.285156" style="stroke:none;fill-rule:nonzero;fill:#5571b5;fill-opacity:1;"/></g></g></svg>